
<svg id="Component_1_5" data-name="Component 1 – 5" xmlns="http://www.w3.org/2000/svg" width="56.462" height="65" viewBox="0 0 56.462 65">
  <path id="Path_1" data-name="Path 1" d="M1585,2162.665c0,33.852,11.922,41.384,20.316,46.686,2.484,1.568,4.6,2.905,5.581,4.607l2.334,4.042,2.334-4.042c.983-1.7,3.1-3.039,5.581-4.607,8.394-5.3,20.316-12.835,20.316-46.686V2160.6l-2.007-.54-25.527-6.869-.7-.187-.7.187-25.528,6.869-2.007.54v2.069Zm26.949,20.323-4.549-4.549-1.912-1.912-1.912,1.912-9.591,9.592c-2.025-5.539-3.4-13-3.56-23.3l22.805-6.136,22.806,6.136a80.437,80.437,0,0,1-2.337,19.4l-12.265-11.23-9.485,10.084Zm-3.761,21.8c6.929-1.632,9.1-6.994,3.4-10.937-4.785-3.315-3.825-8.349.356-10.862-4.71,3.684.12,7.968,3.489,9.828,3.26,1.8,6.526,6.333,2.608,11.417a16.538,16.538,0,0,1-4.816,4.152,34.852,34.852,0,0,0-5.042-3.6Zm21.132-19.287-7.721-10.585,11.5,11.294a35,35,0,0,1-4.079,8.814l.3-9.524Zm-21.772-3.731-2.052-3.688,4.177,4.427-1.917,1.8-.207-2.535Z" transform="translate(-1585 -2153)" fill="#1097d1" fill-rule="evenodd"/>
</svg>
